<svg width="146" height="151" viewBox="0 0 146 151" fill="none" xmlns="http://www.w3.org/2000/svg">
<g clip-path="url(#clip0_9_2)">
<path d="M136.857 81.7299L143.701 82.5248L144.112 78.9866L142.519 78.7361C141.919 78.6403 141.351 78.535 140.815 78.4204C140.286 78.3153 139.808 78.1857 139.381 78.0314C138.953 77.8857 138.603 77.7098 138.33 77.5036C138.057 77.2974 137.888 77.064 137.822 76.8033L138.291 75.0255C138.235 75.3506 138.316 75.6305 138.533 75.8651C138.749 76.1083 139.066 76.3152 139.482 76.4857C139.898 76.6562 140.392 76.8051 140.961 76.9324C141.54 77.0606 142.168 77.1772 142.845 77.282L145.699 77.7182L144.93 84.3427L136.665 83.3828L136.857 81.7299ZM134.982 74.3271L138.325 74.7285L137.16 84.762L133.815 84.3736L133.995 82.824L135.919 83.0475L136.725 76.1131L134.801 75.8896L134.982 74.3271Z" fill="white"/>
<path d="M133.096 94.7234C133.34 94.0562 133.675 93.4821 134.101 93.0012C134.527 92.5204 135.011 92.144 135.553 91.8723C136.104 91.6035 136.686 91.4521 137.298 91.4182C137.919 91.3873 138.547 91.4882 139.181 91.721C139.816 91.9537 140.356 92.2809 140.801 92.7027C141.255 93.1275 141.601 93.6189 141.839 94.1771C142.086 94.7383 142.216 95.3399 142.23 95.9819C142.244 96.6239 142.13 97.2745 141.888 97.9335C141.643 98.6008 141.31 99.1708 140.887 99.6435C140.462 100.124 139.973 100.499 139.422 100.768C138.88 101.04 138.298 101.191 137.677 101.222C137.065 101.256 136.441 101.156 135.807 100.924C135.172 100.691 134.628 100.362 134.175 99.9376C133.721 99.5128 133.375 99.0213 133.137 98.4631C132.898 97.9049 132.772 97.3048 132.758 96.6628C132.742 96.029 132.854 95.3825 133.096 94.7234ZM134.492 95.2214C134.333 95.6527 134.26 96.0782 134.273 96.4981C134.285 96.918 134.376 97.3114 134.546 97.6784C134.724 98.0483 134.965 98.3722 135.27 98.6499C135.579 98.9388 135.954 99.1638 136.393 99.3249C136.832 99.486 137.26 99.5549 137.674 99.5316C138.094 99.5194 138.488 99.4283 138.854 99.2582C139.23 99.0911 139.558 98.8514 139.838 98.5389C140.119 98.2264 140.338 97.8546 140.497 97.4233C140.655 96.9921 140.728 96.5665 140.715 96.1467C140.7 95.7349 140.605 95.34 140.43 94.9619C140.26 94.5949 140.02 94.267 139.711 93.9782C139.406 93.7004 139.034 93.481 138.595 93.3199C138.164 93.1617 137.738 93.0888 137.318 93.101C136.895 93.1213 136.496 93.215 136.121 93.3821C135.754 93.5521 135.431 93.7934 135.15 94.1058C134.869 94.4183 134.65 94.7902 134.492 95.2214Z" fill="white"/>
<path d="M133.035 115.509L132.096 116.914L124.528 111.862L125.466 110.456L133.035 115.509ZM128.079 106.542L129.018 105.137L136.586 110.189L135.648 111.595L128.079 106.542ZM128.638 112.73L131.402 108.589L132.602 109.39L129.838 113.531L128.638 112.73Z" fill="white"/>
<path d="M122.68 122.549L119.412 125.678L118.45 124.673L121.718 121.544L122.68 122.549ZM119.889 119.822L116.18 123.373L115.2 122.349L120.13 117.63L126.423 124.203L121.624 128.797L120.644 127.773L124.222 124.348L119.889 119.822Z" fill="white"/>
<path d="M110.271 126.733L114.957 134.534L113.531 135.391L109.581 128.816L105.647 131.179L109.597 137.754L108.159 138.618L103.473 130.817L110.271 126.733ZM102.621 128.994L103.866 131.066L103.328 130.904L104.911 129.953L105.647 131.179L103.051 132.739L101.283 129.797L102.621 128.994Z" fill="white"/>
<path d="M91.2061 136.131L95.5051 139.397L94.4676 140.622L89.3884 136.721L91.2061 136.131ZM96.9311 134.273L99.7402 142.929L98.1575 143.442L95.3484 134.787L96.9311 134.273ZM97.0145 138.278L97.4639 139.663L94.5458 140.61L94.0963 139.225L97.0145 138.278ZM94.0343 139.792L95.5699 139.512L94.0152 144.787L92.3088 145.341L94.0343 139.792Z" fill="white"/>
<path d="M83.1634 138.399L83.9346 147.466L82.2766 147.607L81.729 141.169L77.4061 148.021L75.8388 148.154L75.0676 139.087L76.7256 138.946L77.2721 145.371L81.596 138.532L83.1634 138.399Z" fill="white"/>
<path d="M67.5748 139.306L66.1787 148.298L64.5344 148.043L65.5256 141.658L59.7043 147.293L58.1499 147.052L59.5459 138.059L61.1902 138.315L60.201 144.686L66.0204 139.065L67.5748 139.306ZM62.0898 148.282C62.8606 148.401 63.4177 148.655 63.7611 149.041C64.096 149.426 64.2218 149.915 64.1387 150.507L62.9697 150.326C63.0103 150.008 62.9454 149.748 62.775 149.546C62.5961 149.343 62.3225 149.212 61.9542 149.155C61.586 149.098 61.2858 149.139 61.0536 149.279C60.813 149.417 60.6637 149.643 60.606 149.959L59.4498 149.779C59.5501 149.19 59.8225 148.763 60.267 148.499C60.7115 148.234 61.3191 148.162 62.0898 148.282Z" fill="white"/>
<path d="M39.29 130.882L34.045 138.318L32.6852 137.359L37.1059 131.091L33.3559 128.446L28.9351 134.714L27.5647 133.748L32.8096 126.311L39.29 130.882ZM34.1335 124.795L32.7398 126.771L32.6715 126.214L34.1801 127.278L33.3559 128.446L30.8806 126.701L32.8587 123.896L34.1335 124.795Z" fill="white"/>
<path d="M26.9876 121.772L20.1679 127.797L19.0661 126.55L23.9081 122.272L15.8298 122.887L14.7883 121.708L21.608 115.683L22.7097 116.93L17.8775 121.199L25.9461 120.593L26.9876 121.772Z" fill="white"/>
<path d="M17.2143 110.043L9.24617 114.438L7.43776 111.16C7.04845 110.454 6.82949 109.788 6.78086 109.162C6.72805 108.528 6.83877 107.957 7.11304 107.449C7.3873 106.942 7.81659 106.527 8.40092 106.205C8.98524 105.882 9.56524 105.74 10.1409 105.779C10.7166 105.818 11.2585 106.029 11.7666 106.412C12.2706 106.787 12.7172 107.327 13.1065 108.033L14.4628 110.492L13.4042 110.215L16.398 108.563L17.2143 110.043ZM13.5636 110.127L13.2107 111.183L11.892 108.792C11.532 108.14 11.1254 107.725 10.6722 107.55C10.2073 107.371 9.72434 107.419 9.22349 107.696C8.71506 107.976 8.41634 108.359 8.32733 108.843C8.23415 109.32 8.36756 109.885 8.72756 110.538L10.0462 112.928L8.95349 112.67L13.5636 110.127Z" fill="white"/>
<path d="M9.269 92.3859L5.89104 96.597L4.69381 95.5275L8.72737 90.5533L9.269 92.3859ZM10.975 98.1581L2.24814 100.737L1.77651 99.1415L10.5034 96.5623L10.975 98.1581ZM6.96931 98.1355L5.57301 98.5482L4.70345 95.606L6.09974 95.1933L6.96931 98.1355ZM5.53474 95.1163L5.77374 96.6588L0.542166 94.9651L0.0336914 93.2447L5.53474 95.1163Z" fill="white"/>
<path d="M3.7795 70.1052L2.43652 69.9492L2.84898 66.3981L4.19195 66.5541L3.7795 70.1052Z" fill="white"/>
<path d="M12.0852 48.3159L6.79403 49.3872L6.55938 47.799L12.8428 46.5615L12.0852 48.3159ZM9.69917 53.8418L1.34473 50.2344L2.00436 48.7067L10.3588 52.3141L9.69917 53.8418ZM6.63702 51.2593L5.30031 50.6821L6.51652 47.8655L7.85323 48.4427L6.63702 51.2593ZM7.4686 48.0217L6.66438 49.3595L3.73076 44.7085L4.44193 43.0615L7.4686 48.0217Z" fill="white"/>
<path d="M18.2326 37.4698C17.8104 38.0415 17.3275 38.4983 16.784 38.8403C16.2405 39.1822 15.6701 39.4074 15.0729 39.5158C14.4687 39.619 13.8679 39.6008 13.2706 39.4613C12.6664 39.3167 12.0923 39.0435 11.5486 38.6419C11.0048 38.2403 10.5785 37.7745 10.2696 37.2446C9.95364 36.7096 9.75968 36.1407 9.68768 35.538C9.6087 34.9302 9.65276 34.3162 9.81984 33.6962C9.98691 33.0762 10.279 32.4838 10.6961 31.9191C11.1183 31.3475 11.5986 30.8942 12.137 30.5592C12.6805 30.2172 13.2543 29.9946 13.8585 29.8914C14.4558 29.783 15.0565 29.8012 15.6608 29.9458C16.2581 30.0853 16.8286 30.3559 17.3724 30.7575C17.9161 31.1592 18.3459 31.6275 18.6618 32.1626C18.9778 32.6976 19.1717 33.2665 19.2437 33.8692C19.3157 34.4718 19.2682 35.0832 19.1011 35.7032C18.9392 36.3163 18.6497 36.9052 18.2326 37.4698ZM17.0328 36.5998C17.3057 36.2303 17.4953 35.8424 17.6015 35.436C17.7078 35.0296 17.7308 34.6264 17.6707 34.2265C17.6036 33.8213 17.463 33.4428 17.249 33.0907C17.0331 32.7265 16.737 32.4054 16.3605 32.1274C15.9841 31.8493 15.5936 31.6632 15.189 31.5691C14.7826 31.4629 14.3795 31.4398 13.9795 31.5C13.5725 31.5549 13.1905 31.6929 12.8333 31.9139C12.4761 32.135 12.161 32.4302 11.8881 32.7997C11.6152 33.1691 11.4256 33.5571 11.3194 33.9635C11.2183 34.3629 11.1988 34.7686 11.2607 35.1807C11.3208 35.5807 11.4588 35.9628 11.6747 36.3269C11.8887 36.679 12.184 36.994 12.5604 37.2721C12.9299 37.545 13.3178 37.7346 13.7242 37.8408C14.1357 37.94 14.545 37.9622 14.9519 37.9072C15.3519 37.8471 15.7305 37.7065 16.0877 37.4855C16.4449 37.2645 16.7599 36.9693 17.0328 36.5998Z" fill="white"/>
<path d="M28.1469 26.1794C27.6206 26.6308 27.0572 26.9657 26.4567 27.1841C25.857 27.3902 25.254 27.4793 24.6477 27.4514C24.0423 27.4112 23.4613 27.2531 22.9047 26.977C22.348 26.7008 21.8496 26.3062 21.4095 25.7932C20.9693 25.2801 20.6551 24.7275 20.4668 24.1354C20.2786 23.5432 20.2167 22.9454 20.2813 22.3419C20.3403 21.7318 20.52 21.1494 20.8206 20.5946C21.1155 20.0333 21.5294 19.5241 22.0622 19.067C22.6279 18.5817 23.2289 18.2373 23.8652 18.034C24.4958 17.8241 25.136 17.7717 25.7856 17.8767L25.6255 19.3671C25.1442 19.3119 24.6925 19.3511 24.2705 19.4848C23.8428 19.6119 23.4481 19.8306 23.0863 20.141C22.7246 20.4513 22.4432 20.7955 22.2422 21.1735C22.0478 21.5458 21.9318 21.9365 21.8944 22.3454C21.8636 22.7487 21.9126 23.1519 22.0416 23.5552C22.1771 23.9527 22.3973 24.3291 22.702 24.6843C23.0067 25.0395 23.3453 25.3143 23.7176 25.5087C24.0965 25.6975 24.4876 25.8073 24.8909 25.8382C25.3008 25.8634 25.7045 25.8082 26.1021 25.6727C26.5062 25.5315 26.8892 25.3057 27.251 24.9953C27.6127 24.685 27.8918 24.3314 28.0881 23.9346C28.2787 23.5313 28.3805 23.0842 28.3934 22.5935L29.8994 22.6718C29.8988 23.3233 29.7496 23.948 29.4518 24.546C29.1541 25.144 28.7191 25.6884 28.1469 26.1794Z" fill="white"/>
<path d="M36.0911 19.4196L32.0234 11.2793L33.2561 10.6633L39.7956 14.8218L39.1327 15.153L39.6753 7.45567L40.908 6.83972L44.9989 14.9684L43.5569 15.689L40.5991 9.79885L40.9015 9.64777L40.4057 16.101L39.7312 16.438L34.2264 12.9833L34.5753 12.809L37.5214 18.7048L36.0911 19.4196Z" fill="white"/>
<path d="M55.789 11.3785C55.0941 11.5276 54.4298 11.5505 53.796 11.4471C53.1622 11.3438 52.5856 11.1351 52.0662 10.8211C51.5449 10.4987 51.1065 10.0875 50.751 9.58763C50.3937 9.07928 50.1442 8.49463 50.0023 7.83367C49.8605 7.17272 49.8492 6.54139 49.9683 5.93968C50.0855 5.3295 50.3165 4.77467 50.6614 4.27519C51.0044 3.76724 51.4439 3.33613 51.9795 2.98187C52.5151 2.62761 53.126 2.37684 53.8124 2.22955C54.5073 2.08045 55.1673 2.05846 55.7927 2.16361C56.4264 2.26693 57.004 2.47983 57.5252 2.80231C58.0447 3.11631 58.483 3.52749 58.8403 4.03584C59.1958 4.53572 59.4444 5.11614 59.5863 5.77709C59.7281 6.43805 59.7404 7.07361 59.6231 7.6838C59.5059 8.29398 59.2748 8.84881 58.9299 9.34829C58.585 9.84777 58.1447 10.2746 57.6091 10.6289C57.082 10.9813 56.4753 11.2312 55.789 11.3785ZM55.4653 9.9322C55.9144 9.83583 56.3132 9.67046 56.6618 9.43611C57.0104 9.20175 57.2945 8.91476 57.5141 8.57512C57.7319 8.227 57.8771 7.85016 57.9496 7.44458C58.0288 7.02871 58.0194 6.59199 57.9212 6.1344C57.823 5.67682 57.6533 5.27888 57.4123 4.94058C57.1779 4.592 56.8909 4.30789 56.5513 4.08826C56.2098 3.86016 55.8321 3.71076 55.418 3.64006C55.004 3.56936 54.5725 3.58219 54.1234 3.67857C53.6743 3.77494 53.2754 3.9403 52.9268 4.17466C52.5867 4.40719 52.3035 4.69843 52.0772 5.04836C51.8576 5.388 51.7082 5.76576 51.629 6.18162C51.5565 6.5872 51.5692 7.01878 51.6674 7.47636C51.7638 7.92547 51.9293 8.32432 52.1636 8.67291C52.4064 9.01968 52.6986 9.30712 53.04 9.53522C53.3797 9.75485 53.7565 9.90001 54.1706 9.97071C54.5846 10.0414 55.0162 10.0285 55.4653 9.9322Z" fill="white"/>
<path d="M71.1101 9.45207C70.4169 9.43869 69.7736 9.31358 69.18 9.07675C68.5953 8.83142 68.086 8.49653 67.6521 8.07208C67.2271 7.63913 66.8988 7.13436 66.6672 6.55778C66.4356 5.98121 66.3263 5.35498 66.3394 4.67911C66.3524 4.00323 66.4858 3.38169 66.7394 2.81448C66.9931 2.24727 67.3449 1.75997 67.7948 1.35258C68.245 0.936521 68.7668 0.621533 69.3604 0.407615C69.9541 0.185032 70.6019 0.0805138 71.3038 0.0940614C72.049 0.108445 72.7267 0.25155 73.3369 0.523377C73.9472 0.786539 74.4599 1.1735 74.8748 1.68427L73.7631 2.69001C73.4407 2.32838 73.0776 2.05699 72.6737 1.87583C72.2699 1.686 71.8297 1.58649 71.3532 1.57729C70.8766 1.56809 70.4375 1.63763 70.0359 1.78591C69.643 1.93435 69.2964 2.1487 68.9963 2.42896C68.7048 2.70939 68.473 3.04298 68.3008 3.42973C68.1373 3.81665 68.0511 4.24406 68.0421 4.71197C68.033 5.17989 68.1027 5.61031 68.2512 6.00325C68.4083 6.39636 68.6271 6.73864 68.9075 7.03011C69.1966 7.32174 69.5346 7.54931 69.9215 7.7128C70.3171 7.87647 70.7532 7.9629 71.2297 7.9721C71.7063 7.9813 72.1499 7.90318 72.5605 7.73774C72.9713 7.56363 73.3448 7.29779 73.6811 6.94021L74.7528 8.0011C74.3187 8.48681 73.7915 8.8537 73.1713 9.10178C72.5511 9.34986 71.864 9.46662 71.1101 9.45207Z" fill="white"/>
<path d="M88.9302 8.53011L89.3476 7.24414L92.748 8.34771L92.3306 9.63368L88.9302 8.53011Z" fill="white"/>
<path d="M109.256 20.4243L113.227 14.7938L110.316 12.7408L109.334 14.0207C108.963 14.5014 108.599 14.9499 108.242 15.3662C107.897 15.7803 107.554 16.138 107.214 16.4392C106.882 16.7455 106.56 16.9691 106.248 17.1099C105.937 17.2508 105.651 17.2878 105.39 17.2209L104.053 15.9594C104.312 16.1634 104.597 16.2262 104.906 16.1477C105.223 16.0743 105.556 15.8955 105.905 15.6113C106.254 15.3271 106.621 14.9653 107.005 14.5257C107.394 14.0791 107.797 13.5835 108.213 13.039L109.961 10.7405L115.411 14.5843L110.615 21.3834L109.256 20.4243ZM101.857 18.5311L103.809 15.7871L112.063 21.6089L110.122 24.3604L108.848 23.4613L109.964 21.8784L104.259 17.8548L103.143 19.4377L101.857 18.5311Z" fill="white"/>
<path d="M127.121 25.3216L128.239 26.5881L121.42 32.6132L120.301 31.3467L127.121 25.3216ZM117.185 27.8199L116.066 26.5534L122.886 20.5283L124.005 21.7948L117.185 27.8199ZM123.31 28.8619L120.013 25.1306L121.094 24.1752L124.391 27.9065L123.31 28.8619Z" fill="white"/>
<path d="M125.899 38.2929L133.867 33.8975L135.676 37.1758C136.065 37.8815 136.284 38.5476 136.333 39.174C136.385 39.808 136.275 40.3789 136 40.8865C135.726 41.3941 135.297 41.8091 134.712 42.1314C134.128 42.4537 133.548 42.5955 132.972 42.5567C132.397 42.518 131.855 42.3072 131.347 41.9243C130.843 41.549 130.396 41.0085 130.007 40.3028L128.651 37.8441L129.709 38.1213L126.715 39.7727L125.899 38.2929ZM129.55 38.2092L129.903 37.1534L131.221 39.5438C131.581 40.1964 131.988 40.6105 132.441 40.7861C132.906 40.9651 133.389 40.9165 133.89 40.6402C134.398 40.3598 134.697 39.9772 134.786 39.4926C134.879 39.0156 134.746 38.4508 134.386 37.7982L133.067 35.4077L134.16 35.6661L129.55 38.2092Z" fill="white"/>
</g>
<defs>
<clipPath id="clip0_9_2">
<rect width="146" height="151" fill="white"/>
</clipPath>
</defs>
</svg>
