<svg width="146" height="151" viewBox="0 0 146 151" fill="none" xmlns="http://www.w3.org/2000/svg">
<path d="M136.857 81.73L143.701 82.5249L144.112 78.9867L142.519 78.7362C141.919 78.6404 141.351 78.5351 140.815 78.4205C140.286 78.3154 139.808 78.1858 139.381 78.0315C138.953 77.8858 138.603 77.7099 138.33 77.5037C138.057 77.2975 137.888 77.0641 137.822 76.8034L138.291 75.0256C138.235 75.3507 138.316 75.6306 138.533 75.8652C138.749 76.1084 139.066 76.3153 139.482 76.4858C139.898 76.6563 140.392 76.8052 140.961 76.9325C141.54 77.0607 142.168 77.1773 142.845 77.2821L145.699 77.7183L144.93 84.3428L136.665 83.3829L136.857 81.73ZM134.982 74.3272L138.325 74.7286L137.16 84.7621L133.815 84.3737L133.995 82.8241L135.919 83.0476L136.725 76.1132L134.801 75.8897L134.982 74.3272Z" fill="black"/>
<path d="M133.096 94.7233C133.34 94.0561 133.675 93.482 134.101 93.0011C134.527 92.5203 135.011 92.1439 135.553 91.8722C136.104 91.6034 136.686 91.452 137.298 91.4181C137.919 91.3872 138.547 91.4881 139.181 91.7209C139.816 91.9536 140.356 92.2808 140.801 92.7026C141.255 93.1274 141.601 93.6188 141.839 94.177C142.086 94.7382 142.216 95.3398 142.23 95.9818C142.244 96.6238 142.13 97.2744 141.888 97.9334C141.643 98.6007 141.31 99.1707 140.887 99.6434C140.462 100.124 139.973 100.499 139.422 100.768C138.88 101.04 138.298 101.191 137.677 101.222C137.065 101.256 136.441 101.156 135.807 100.924C135.172 100.691 134.628 100.362 134.175 99.9375C133.721 99.5127 133.375 99.0212 133.137 98.463C132.898 97.9048 132.772 97.3047 132.758 96.6627C132.742 96.0289 132.854 95.3824 133.096 94.7233ZM134.492 95.2213C134.333 95.6526 134.26 96.0781 134.273 96.498C134.285 96.9179 134.376 97.3113 134.546 97.6783C134.724 98.0482 134.965 98.3721 135.27 98.6498C135.579 98.9387 135.954 99.1637 136.393 99.3248C136.832 99.4859 137.26 99.5548 137.674 99.5315C138.094 99.5193 138.488 99.4282 138.854 99.2581C139.23 99.091 139.558 98.8513 139.838 98.5388C140.119 98.2263 140.338 97.8545 140.497 97.4232C140.655 96.992 140.728 96.5664 140.715 96.1466C140.7 95.7348 140.605 95.3399 140.43 94.9618C140.26 94.5948 140.02 94.2669 139.711 93.9781C139.406 93.7003 139.034 93.4809 138.595 93.3198C138.164 93.1616 137.738 93.0887 137.318 93.1009C136.895 93.1212 136.496 93.2149 136.121 93.382C135.754 93.552 135.431 93.7933 135.15 94.1057C134.869 94.4182 134.65 94.7901 134.492 95.2213Z" fill="black"/>
<path d="M133.035 115.509L132.096 116.914L124.528 111.862L125.466 110.456L133.035 115.509ZM128.079 106.542L129.018 105.137L136.586 110.189L135.648 111.595L128.079 106.542ZM128.638 112.73L131.402 108.589L132.602 109.39L129.838 113.531L128.638 112.73Z" fill="black"/>
<path d="M122.68 122.549L119.412 125.678L118.45 124.673L121.718 121.544L122.68 122.549ZM119.889 119.822L116.18 123.373L115.2 122.349L120.13 117.63L126.423 124.203L121.624 128.797L120.644 127.773L124.222 124.348L119.889 119.822Z" fill="black"/>
<path d="M110.271 126.733L114.957 134.534L113.531 135.391L109.581 128.816L105.647 131.179L109.597 137.754L108.159 138.618L103.473 130.817L110.271 126.733ZM102.621 128.994L103.866 131.066L103.328 130.904L104.911 129.953L105.647 131.179L103.051 132.739L101.283 129.797L102.621 128.994Z" fill="black"/>
<path d="M91.2061 136.131L95.5051 139.397L94.4676 140.622L89.3884 136.721L91.2061 136.131ZM96.9311 134.273L99.7402 142.929L98.1575 143.442L95.3484 134.787L96.9311 134.273ZM97.0145 138.278L97.4639 139.663L94.5458 140.61L94.0963 139.225L97.0145 138.278ZM94.0343 139.792L95.5699 139.512L94.0152 144.787L92.3088 145.341L94.0343 139.792Z" fill="black"/>
<path d="M83.1634 138.399L83.9346 147.466L82.2766 147.607L81.729 141.169L77.4061 148.021L75.8388 148.154L75.0676 139.087L76.7256 138.946L77.2721 145.371L81.596 138.532L83.1634 138.399Z" fill="black"/>
<path d="M67.5749 139.306L66.1788 148.298L64.5345 148.043L65.5257 141.658L59.7044 147.293L58.15 147.052L59.546 138.059L61.1903 138.315L60.2011 144.686L66.0205 139.065L67.5749 139.306ZM62.0899 148.282C62.8607 148.401 63.4178 148.655 63.7612 149.041C64.0961 149.426 64.2219 149.915 64.1388 150.507L62.9698 150.326C63.0104 150.008 62.9455 149.748 62.7751 149.546C62.5962 149.343 62.3226 149.212 61.9543 149.155C61.5861 149.098 61.2859 149.139 61.0537 149.279C60.8131 149.417 60.6638 149.643 60.6061 149.959L59.4499 149.779C59.5502 149.19 59.8226 148.763 60.2671 148.499C60.7116 148.234 61.3192 148.162 62.0899 148.282Z" fill="black"/>
<path d="M39.2899 130.882L34.0449 138.318L32.6851 137.359L37.1058 131.091L33.3558 128.446L28.935 134.714L27.5646 133.748L32.8095 126.311L39.2899 130.882ZM34.1334 124.795L32.7397 126.771L32.6714 126.214L34.18 127.278L33.3558 128.446L30.8805 126.701L32.8586 123.896L34.1334 124.795Z" fill="black"/>
<path d="M26.9877 121.772L20.168 127.797L19.0662 126.55L23.9082 122.272L15.8299 122.887L14.7884 121.708L21.6081 115.683L22.7098 116.93L17.8776 121.199L25.9462 120.593L26.9877 121.772Z" fill="black"/>
<path d="M17.2142 110.043L9.24609 114.438L7.43768 111.16C7.04837 110.454 6.82941 109.788 6.78078 109.162C6.72797 108.528 6.83869 107.957 7.11296 107.449C7.38722 106.942 7.81651 106.527 8.40084 106.205C8.98516 105.882 9.56516 105.74 10.1408 105.779C10.7165 105.818 11.2584 106.029 11.7665 106.412C12.2705 106.787 12.7171 107.327 13.1064 108.033L14.4627 110.492L13.4041 110.215L16.3979 108.563L17.2142 110.043ZM13.5635 110.127L13.2106 111.183L11.8919 108.792C11.5319 108.14 11.1253 107.725 10.6721 107.55C10.2072 107.371 9.72426 107.419 9.22341 107.696C8.71498 107.976 8.41626 108.359 8.32725 108.843C8.23407 109.32 8.36748 109.885 8.72748 110.538L10.0461 112.928L8.95341 112.67L13.5635 110.127Z" fill="black"/>
<path d="M9.26891 92.3859L5.89095 96.597L4.69372 95.5275L8.72728 90.5533L9.26891 92.3859ZM10.9749 98.1581L2.24805 100.737L1.77642 99.1415L10.5033 96.5623L10.9749 98.1581ZM6.96922 98.1355L5.57292 98.5482L4.70336 95.606L6.09965 95.1933L6.96922 98.1355ZM5.53465 95.1163L5.77365 96.6588L0.542079 94.9651L0.0336048 93.2447L5.53465 95.1163Z" fill="black"/>
<path d="M3.7795 70.1052L2.43652 69.9492L2.84898 66.3981L4.19195 66.5541L3.7795 70.1052Z" fill="black"/>
<path d="M12.0852 48.3159L6.79403 49.3872L6.55938 47.799L12.8428 46.5615L12.0852 48.3159ZM9.69917 53.8418L1.34473 50.2344L2.00436 48.7067L10.3588 52.3141L9.69917 53.8418ZM6.63702 51.2593L5.30031 50.6821L6.51652 47.8655L7.85323 48.4427L6.63702 51.2593ZM7.4686 48.0217L6.66438 49.3595L3.73076 44.7085L4.44193 43.0615L7.4686 48.0217Z" fill="black"/>
<path d="M18.2326 37.4698C17.8104 38.0415 17.3275 38.4983 16.784 38.8403C16.2405 39.1822 15.6701 39.4074 15.0729 39.5158C14.4687 39.619 13.8679 39.6008 13.2706 39.4613C12.6664 39.3167 12.0923 39.0435 11.5486 38.6419C11.0048 38.2403 10.5785 37.7745 10.2696 37.2446C9.95363 36.7096 9.75967 36.1407 9.68767 35.538C9.60869 34.9302 9.65274 34.3162 9.81982 33.6962C9.98689 33.0762 10.279 32.4838 10.6961 31.9191C11.1183 31.3475 11.5986 30.8942 12.137 30.5592C12.6805 30.2172 13.2543 29.9946 13.8585 29.8914C14.4558 29.783 15.0565 29.8012 15.6608 29.9458C16.2581 30.0853 16.8286 30.3559 17.3724 30.7575C17.9161 31.1592 18.3459 31.6275 18.6618 32.1626C18.9778 32.6976 19.1717 33.2665 19.2437 33.8692C19.3157 34.4718 19.2682 35.0832 19.1011 35.7032C18.9392 36.3163 18.6497 36.9052 18.2326 37.4698ZM17.0328 36.5998C17.3057 36.2303 17.4953 35.8424 17.6015 35.436C17.7078 35.0296 17.7308 34.6264 17.6707 34.2265C17.6036 33.8213 17.463 33.4428 17.249 33.0907C17.0331 32.7265 16.737 32.4054 16.3605 32.1274C15.9841 31.8493 15.5936 31.6632 15.189 31.5691C14.7826 31.4629 14.3795 31.4398 13.9795 31.5C13.5725 31.5549 13.1905 31.6929 12.8333 31.9139C12.4761 32.135 12.161 32.4302 11.8881 32.7997C11.6152 33.1691 11.4256 33.5571 11.3194 33.9635C11.2183 34.3629 11.1988 34.7686 11.2607 35.1807C11.3208 35.5807 11.4588 35.9628 11.6747 36.3269C11.8887 36.679 12.184 36.994 12.5604 37.2721C12.9299 37.545 13.3178 37.7346 13.7242 37.8408C14.1357 37.94 14.545 37.9622 14.9519 37.9072C15.3519 37.8471 15.7305 37.7065 16.0877 37.4855C16.4449 37.2645 16.7599 36.9693 17.0328 36.5998Z" fill="black"/>
<path d="M28.147 26.1794C27.6207 26.6308 27.0573 26.9657 26.4568 27.1841C25.8571 27.3902 25.2541 27.4793 24.6478 27.4514C24.0424 27.4112 23.4614 27.2531 22.9048 26.977C22.3481 26.7008 21.8497 26.3062 21.4096 25.7932C20.9694 25.2801 20.6552 24.7275 20.4669 24.1354C20.2787 23.5432 20.2168 22.9454 20.2814 22.3419C20.3404 21.7318 20.5201 21.1494 20.8207 20.5946C21.1156 20.0333 21.5295 19.5241 22.0623 19.067C22.628 18.5817 23.229 18.2373 23.8653 18.034C24.4959 17.8241 25.1361 17.7717 25.7857 17.8767L25.6256 19.3671C25.1443 19.3119 24.6926 19.3511 24.2706 19.4848C23.8429 19.6119 23.4482 19.8306 23.0864 20.141C22.7247 20.4513 22.4433 20.7955 22.2423 21.1735C22.0479 21.5458 21.9319 21.9365 21.8945 22.3454C21.8637 22.7487 21.9127 23.1519 22.0417 23.5552C22.1772 23.9527 22.3974 24.3291 22.7021 24.6843C23.0068 25.0395 23.3454 25.3143 23.7177 25.5087C24.0966 25.6975 24.4877 25.8073 24.891 25.8382C25.3009 25.8634 25.7046 25.8082 26.1022 25.6727C26.5063 25.5315 26.8893 25.3057 27.2511 24.9953C27.6128 24.685 27.8919 24.3314 28.0882 23.9346C28.2788 23.5313 28.3806 23.0842 28.3935 22.5935L29.8995 22.6718C29.8989 23.3233 29.7497 23.948 29.4519 24.546C29.1542 25.144 28.7192 25.6884 28.147 26.1794Z" fill="black"/>
<path d="M36.0911 19.4196L32.0234 11.2793L33.2561 10.6633L39.7956 14.8218L39.1327 15.153L39.6753 7.45572L40.908 6.83977L44.9989 14.9684L43.5569 15.689L40.5991 9.7989L40.9015 9.64782L40.4057 16.101L39.7312 16.438L34.2264 12.9833L34.5753 12.809L37.5214 18.7048L36.0911 19.4196Z" fill="black"/>
<path d="M55.789 11.3785C55.0941 11.5276 54.4298 11.5505 53.796 11.4471C53.1622 11.3438 52.5856 11.1351 52.0662 10.8211C51.5449 10.4987 51.1066 10.0875 50.7511 9.5876C50.3938 9.07925 50.1443 8.4946 50.0024 7.83364C49.8606 7.17269 49.8492 6.54136 49.9683 5.93965C50.0855 5.32947 50.3166 4.77464 50.6615 4.27516C51.0045 3.76721 51.4439 3.3361 51.9795 2.98184C52.5151 2.62758 53.126 2.37681 53.8124 2.22952C54.5073 2.08042 55.1673 2.05843 55.7927 2.16358C56.4264 2.2669 57.004 2.4798 57.5252 2.80228C58.0447 3.11628 58.483 3.52746 58.8403 4.03581C59.1958 4.53569 59.4444 5.11611 59.5863 5.77706C59.7281 6.43802 59.7404 7.07358 59.6231 7.68377C59.5059 8.29395 59.2748 8.84878 58.9299 9.34826C58.585 9.84774 58.1448 10.2746 57.6092 10.6289C57.0821 10.9813 56.4753 11.2312 55.789 11.3785ZM55.4653 9.93217C55.9144 9.8358 56.3133 9.67043 56.6619 9.43608C57.0105 9.20172 57.2946 8.91473 57.5142 8.57509C57.732 8.22697 57.8772 7.85013 57.9497 7.44455C58.0289 7.02868 58.0194 6.59196 57.9212 6.13437C57.823 5.67679 57.6534 5.27885 57.4124 4.94055C57.178 4.59197 56.891 4.30786 56.5514 4.08823C56.2099 3.86013 55.8322 3.71073 55.4181 3.64003C55.0041 3.56933 54.5725 3.58216 54.1234 3.67854C53.6743 3.77491 53.2754 3.94027 52.9268 4.17463C52.5867 4.40716 52.3035 4.6984 52.0772 5.04833C51.8576 5.38797 51.7082 5.76573 51.629 6.18159C51.5565 6.58717 51.5693 7.01875 51.6675 7.47633C51.7639 7.92544 51.9293 8.32429 52.1636 8.67288C52.4064 9.01965 52.6986 9.30709 53.04 9.53519C53.3797 9.75482 53.7565 9.89998 54.1706 9.97068C54.5846 10.0414 55.0162 10.0285 55.4653 9.93217Z" fill="black"/>
<path d="M71.1101 9.45209C70.4169 9.43871 69.7736 9.3136 69.18 9.07677C68.5953 8.83144 68.086 8.49655 67.6521 8.0721C67.2271 7.63915 66.8988 7.13438 66.6672 6.5578C66.4356 5.98123 66.3263 5.355 66.3394 4.67913C66.3524 4.00325 66.4858 3.38171 66.7394 2.8145C66.9931 2.24729 67.3449 1.75999 67.7948 1.3526C68.245 0.93654 68.7668 0.621552 69.3604 0.407634C69.9541 0.185051 70.6019 0.0805326 71.3038 0.0940802C72.049 0.108464 72.7267 0.251569 73.3369 0.523396C73.9472 0.786558 74.4599 1.17352 74.8748 1.68429L73.7631 2.69003C73.4407 2.3284 73.0776 2.05701 72.6737 1.87585C72.2699 1.68602 71.8297 1.58651 71.3532 1.57731C70.8766 1.56811 70.4375 1.63765 70.0359 1.78593C69.643 1.93437 69.2964 2.14872 68.9963 2.42898C68.7048 2.70941 68.473 3.043 68.3008 3.42975C68.1373 3.81667 68.0511 4.24408 68.0421 4.71199C68.033 5.17991 68.1027 5.61033 68.2512 6.00327C68.4083 6.39638 68.6271 6.73866 68.9075 7.03013C69.1966 7.32176 69.5346 7.54933 69.9215 7.71282C70.3171 7.87649 70.7532 7.96292 71.2297 7.97212C71.7063 7.98132 72.1499 7.9032 72.5605 7.73776C72.9713 7.56365 73.3448 7.29781 73.6811 6.94023L74.7528 8.00112C74.3187 8.48683 73.7915 8.85372 73.1713 9.1018C72.5511 9.34988 71.864 9.46664 71.1101 9.45209Z" fill="black"/>
<path d="M88.9303 8.53011L89.3477 7.24414L92.7481 8.34771L92.3307 9.63368L88.9303 8.53011Z" fill="black"/>
<path d="M109.256 20.4243L113.227 14.7938L110.316 12.7408L109.334 14.0207C108.963 14.5014 108.599 14.9499 108.242 15.3662C107.897 15.7803 107.554 16.138 107.214 16.4392C106.882 16.7455 106.56 16.9691 106.248 17.1099C105.937 17.2508 105.651 17.2878 105.39 17.2209L104.053 15.9594C104.312 16.1634 104.597 16.2262 104.906 16.1477C105.223 16.0743 105.556 15.8955 105.905 15.6113C106.254 15.3271 106.621 14.9653 107.005 14.5257C107.394 14.0791 107.797 13.5835 108.213 13.039L109.961 10.7405L115.411 14.5843L110.615 21.3834L109.256 20.4243ZM101.857 18.5311L103.809 15.7871L112.063 21.6089L110.122 24.3604L108.848 23.4613L109.964 21.8784L104.259 17.8548L103.143 19.4377L101.857 18.5311Z" fill="black"/>
<path d="M127.121 25.3216L128.239 26.5881L121.42 32.6132L120.301 31.3467L127.121 25.3216ZM117.185 27.8199L116.066 26.5534L122.886 20.5283L124.005 21.7948L117.185 27.8199ZM123.31 28.8619L120.013 25.1306L121.094 24.1752L124.391 27.9065L123.31 28.8619Z" fill="black"/>
<path d="M125.899 38.2929L133.867 33.8975L135.676 37.1758C136.065 37.8815 136.284 38.5476 136.333 39.174C136.385 39.808 136.275 40.3789 136 40.8865C135.726 41.3941 135.297 41.8091 134.712 42.1314C134.128 42.4537 133.548 42.5955 132.972 42.5567C132.397 42.518 131.855 42.3072 131.347 41.9243C130.843 41.549 130.396 41.0085 130.007 40.3028L128.651 37.8441L129.709 38.1213L126.715 39.7727L125.899 38.2929ZM129.55 38.2092L129.903 37.1534L131.221 39.5438C131.581 40.1964 131.988 40.6105 132.441 40.7861C132.906 40.9651 133.389 40.9165 133.89 40.6402C134.398 40.3598 134.697 39.9772 134.786 39.4926C134.879 39.0156 134.746 38.4508 134.386 37.7982L133.067 35.4077L134.16 35.6661L129.55 38.2092Z" fill="black"/>
</svg>
