<svg width="146" height="151" viewBox="0 0 146 151" fill="none" xmlns="http://www.w3.org/2000/svg"><g clip-path="url(#clip0_9_2)" fill="#fff"><path d="M136.857 81.73l6.844.795.411-3.538-1.593-.25c-.6-.097-1.168-.202-1.704-.317a9.915 9.915 0 01-1.434-.389c-.428-.145-.778-.321-1.051-.527-.273-.207-.442-.44-.508-.7l.469-1.779a.94.94 0 00.242.84c.216.243.533.45.949.62.416.171.91.32 1.479.447.579.129 1.207.245 1.884.35l2.854.436-.769 6.625-8.265-.96.192-1.653zm-1.875-7.403l3.343.401-1.165 10.034-3.345-.388.18-1.55 1.924.224.806-6.935-1.924-.223.181-1.563zm-1.886 20.396a5.322 5.322 0 011.005-1.722c.426-.48.91-.857 1.452-1.129a4.511 4.511 0 011.745-.454 4.74 4.74 0 011.883.303c.635.233 1.175.56 1.62.982.454.424.8.916 1.038 1.474.247.561.377 1.163.391 1.805.014.642-.1 1.293-.342 1.951a5.238 5.238 0 01-1.001 1.71 4.69 4.69 0 01-1.465 1.125 4.329 4.329 0 01-1.745.454 4.657 4.657 0 01-1.87-.298 4.745 4.745 0 01-1.632-.986 4.324 4.324 0 01-1.038-1.475 4.795 4.795 0 01-.379-1.8 5.214 5.214 0 01.338-1.94zm1.396.498a3.367 3.367 0 00-.219 1.277c.012.42.103.813.273 1.18a3.273 3.273 0 001.847 1.647c.439.161.867.23 1.281.207.42-.013.814-.104 1.18-.274.376-.167.704-.407.984-.72.281-.312.5-.683.659-1.115.158-.43.231-.856.218-1.276a3.06 3.06 0 00-.285-1.185 3.154 3.154 0 00-.719-.984 3.347 3.347 0 00-1.116-.658 3.398 3.398 0 00-1.277-.219 3.3 3.3 0 00-1.197.281c-.367.17-.69.411-.971.724-.281.312-.5.684-.658 1.115zm-1.457 20.288l-.939 1.405-7.568-5.052.938-1.406 7.569 5.053zm-4.956-8.967l.939-1.405 7.568 5.052-.938 1.406-7.569-5.053zm.559 6.188l2.764-4.141 1.2.801-2.764 4.141-1.2-.801zm-5.958 9.819l-3.268 3.129-.962-1.005 3.268-3.129.962 1.005zm-2.791-2.727l-3.709 3.551-.98-1.024 4.93-4.719 6.293 6.573-4.799 4.594-.98-1.024 3.578-3.425-4.333-4.526zm-9.618 6.911l4.686 7.801-1.426.857-3.95-6.575-3.934 2.363 3.95 6.575-1.438.864-4.686-7.801 6.798-4.084zm-7.65 2.261l1.245 2.072-.538-.162 1.583-.951.736 1.226-2.596 1.56-1.768-2.942 1.338-.803zm-11.415 7.137l4.3 3.266-1.038 1.225-5.08-3.901 1.818-.59zm5.725-1.858l2.81 8.656-1.584.513-2.809-8.655 1.583-.514zm.084 4.005l.449 1.385-2.918.947-.45-1.385 2.918-.947zm-2.98 1.514l1.535-.28-1.555 5.275-1.706.554 1.725-5.549zm-10.872-1.393l.772 9.067-1.658.141-.548-6.438-4.323 6.852-1.567.133-.771-9.067 1.658-.141.546 6.425 4.324-6.839 1.567-.133zm-15.588.907l-1.396 8.992-1.645-.255.992-6.385-5.822 5.635-1.554-.241 1.396-8.993 1.644.256-.989 6.371 5.82-5.621 1.554.241zm-5.485 8.976c.77.119 1.328.373 1.671.759.335.385.46.874.378 1.466l-1.17-.181c.041-.318-.024-.578-.194-.78-.179-.203-.453-.334-.82-.391-.369-.057-.67-.016-.901.124-.241.138-.39.364-.448.68l-1.156-.18c.1-.589.372-1.016.817-1.28.444-.265 1.052-.337 1.823-.217zm-22.8-17.4l-5.245 7.436-1.36-.959 4.42-6.268-3.75-2.645-4.42 6.268-1.37-.966 5.245-7.437 6.48 4.571zm-5.157-6.087l-1.393 1.976-.069-.557 1.51 1.064-.825 1.168-2.475-1.745 1.978-2.805 1.274.899zm-7.145-3.023l-6.82 6.025-1.102-1.247 4.842-4.278-8.078.615-1.042-1.179 6.82-6.025 1.102 1.247-4.832 4.269 8.068-.606 1.042 1.179zm-9.774-11.729l-7.968 4.395-1.808-3.278c-.39-.706-.609-1.372-.657-1.998-.053-.634.058-1.205.332-1.713.274-.507.704-.922 1.288-1.244.584-.323 1.164-.465 1.74-.426.576.039 1.117.25 1.626.633.504.375.95.915 1.34 1.621l1.356 2.459-1.059-.277 2.994-1.652.816 1.48zm-3.65.084l-.353 1.056-1.319-2.391c-.36-.652-.767-1.067-1.22-1.242-.465-.179-.948-.131-1.449.146-.508.28-.807.663-.896 1.147-.093.477.04 1.042.4 1.695l1.32 2.39-1.094-.258 4.61-2.543zM9.269 92.386l-3.378 4.211-1.197-1.07 4.033-4.974.542 1.833zm1.706 5.772l-8.727 2.579-.471-1.596 8.726-2.579.472 1.596zm-4.006-.023l-1.396.413-.87-2.942 1.397-.413.87 2.942zm-1.434-3.019l.239 1.543-5.232-1.694-.508-1.72 5.5 1.871zM3.78 70.105l-1.343-.156.412-3.55 1.343.155-.413 3.551zm8.305-21.789l-5.291 1.071-.235-1.588 6.284-1.237-.758 1.754zM9.7 53.842l-8.354-3.608.66-1.527 8.354 3.607-.66 1.528zm-3.062-2.583L5.3 50.682l1.217-2.817 1.336.578-1.216 2.816zm.832-3.237l-.805 1.337-2.933-4.65.71-1.648 3.028 4.96zM18.233 37.47a5.34 5.34 0 01-1.449 1.37 4.805 4.805 0 01-1.711.676 4.51 4.51 0 01-1.802-.055 4.744 4.744 0 01-1.722-.82 4.648 4.648 0 01-1.28-1.396 4.335 4.335 0 01-.581-1.707 4.693 4.693 0 01.132-1.842c.167-.62.459-1.212.876-1.777a5.239 5.239 0 011.441-1.36 4.692 4.692 0 011.721-.668 4.336 4.336 0 011.803.055 4.65 4.65 0 011.711.811c.544.402.974.87 1.29 1.406.316.535.51 1.104.582 1.706a4.802 4.802 0 01-.143 1.834 5.202 5.202 0 01-.868 1.767zm-1.2-.87c.273-.37.462-.758.569-1.164.106-.406.129-.81.069-1.21a3.274 3.274 0 00-1.31-2.1 3.18 3.18 0 00-1.172-.557 2.982 2.982 0 00-1.21-.069 2.891 2.891 0 00-1.146.414 3.4 3.4 0 00-.945.886c-.273.37-.462.757-.569 1.164-.1.399-.12.805-.058 1.217.06.4.198.782.414 1.146.214.352.509.667.885.945.37.273.758.463 1.164.569.412.099.821.121 1.228.066.4-.06.778-.2 1.136-.421a3.41 3.41 0 00.945-.886zm11.114-10.42a5.453 5.453 0 01-1.69 1.004c-.6.206-1.203.295-1.81.267a4.569 4.569 0 01-1.742-.474 4.745 4.745 0 01-1.495-1.184 4.745 4.745 0 01-.943-1.658 4.337 4.337 0 01-.186-1.793c.06-.61.239-1.193.54-1.747a5.203 5.203 0 011.241-1.528 5.193 5.193 0 011.803-1.033 3.98 3.98 0 011.92-.157l-.16 1.49a3.224 3.224 0 00-1.355.118 3.213 3.213 0 00-1.184.656c-.361.31-.643.655-.844 1.033-.194.372-.31.762-.348 1.171-.03.404.019.807.148 1.21.135.398.355.774.66 1.13.305.355.643.63 1.016.824.378.189.77.298 1.173.33.41.024.814-.03 1.211-.166a3.574 3.574 0 001.149-.678c.362-.31.64-.664.837-1.06.19-.404.293-.85.305-1.341l1.506.078c0 .651-.15 1.276-.447 1.874-.298.598-.733 1.142-1.305 1.633zm7.944-6.76l-4.068-8.14 1.233-.617 6.54 4.159-.663.331.542-7.697 1.233-.616 4.09 8.128-1.441.721-2.958-5.89.303-.151-.496 6.453-.675.337-5.505-3.455.35-.174 2.945 5.896-1.43.715zm19.698-8.041a5.34 5.34 0 01-1.993.068 4.802 4.802 0 01-1.73-.626 4.508 4.508 0 01-1.315-1.233 4.745 4.745 0 01-.749-1.754 4.65 4.65 0 01-.034-1.894c.117-.61.348-1.165.693-1.665a4.685 4.685 0 011.319-1.293 5.305 5.305 0 011.832-.752 5.24 5.24 0 011.98-.066 4.693 4.693 0 011.733.638c.52.314.958.725 1.315 1.234.356.5.604 1.08.746 1.741.142.661.154 1.297.037 1.907a4.335 4.335 0 01-.693 1.664c-.345.5-.785.927-1.32 1.28a5.204 5.204 0 01-1.821.75zm-.324-1.447a3.4 3.4 0 001.197-.496c.348-.234.633-.521.852-.86a3.275 3.275 0 00.407-2.44 3.182 3.182 0 00-.509-1.195 2.984 2.984 0 00-.86-.853 2.893 2.893 0 00-1.134-.448 3.399 3.399 0 00-1.295.039 3.4 3.4 0 00-1.196.496 3.06 3.06 0 00-.85.873 3.15 3.15 0 00-.448 1.134c-.072.405-.06.837.038 1.294.097.45.262.848.497 1.197.242.347.535.634.876.862.34.22.717.365 1.13.436a3.4 3.4 0 001.295-.039zm15.645-.48a5.45 5.45 0 01-1.93-.375 4.837 4.837 0 01-1.528-1.005 4.569 4.569 0 01-.985-1.514 4.743 4.743 0 01-.328-1.879 4.744 4.744 0 01.4-1.865 4.337 4.337 0 011.056-1.461A4.56 4.56 0 0169.36.408a5.203 5.203 0 011.944-.314 5.193 5.193 0 012.033.43 3.99 3.99 0 011.538 1.16L73.763 2.69a3.223 3.223 0 00-1.09-.814 3.214 3.214 0 00-1.32-.299 3.564 3.564 0 00-1.317.209c-.393.148-.74.363-1.04.643a3.15 3.15 0 00-.695 1c-.164.388-.25.815-.259 1.283-.009.468.06.898.21 1.291.156.393.375.736.656 1.027.289.292.627.52 1.013.683.396.163.832.25 1.309.26.476.008.92-.07 1.33-.235.411-.174.785-.44 1.121-.798l1.072 1.061a4.163 4.163 0 01-1.582 1.1c-.62.249-1.307.366-2.06.351zm17.82-.922l.418-1.286 3.4 1.104-.417 1.286-3.4-1.104zm20.326 11.894l3.971-5.63-2.911-2.053-.982 1.28c-.371.48-.735.929-1.092 1.345a9.876 9.876 0 01-1.028 1.073c-.332.306-.654.53-.966.67-.311.142-.597.179-.858.112l-1.337-1.262a.941.941 0 00.853.189c.317-.074.65-.252.999-.537a9.233 9.233 0 001.1-1.085c.389-.447.792-.942 1.208-1.487l1.748-2.298 5.45 3.843-4.796 6.8-1.359-.96zm-7.399-1.893l1.952-2.744 8.254 5.822-1.941 2.751-1.274-.899 1.116-1.583-5.705-4.023-1.116 1.583-1.286-.907zm25.264 6.791l1.118 1.266-6.819 6.025-1.119-1.266 6.82-6.025zm-9.936 2.498l-1.119-1.267 6.82-6.025 1.119 1.267-6.82 6.025zm6.125 1.042l-3.297-3.731 1.081-.956 3.297 3.732-1.081.955zm2.589 9.431l7.968-4.395 1.809 3.278c.389.706.608 1.372.657 1.998.052.634-.058 1.205-.333 1.712-.274.508-.703.923-1.288 1.245-.584.323-1.164.465-1.74.426-.575-.039-1.117-.25-1.625-.633-.504-.375-.951-.916-1.34-1.621l-1.356-2.459 1.058.277-2.994 1.652-.816-1.48zm3.651-.084l.353-1.056 1.318 2.39c.36.653.767 1.068 1.22 1.243.465.18.948.13 1.449-.146.508-.28.807-.663.896-1.147.093-.477-.04-1.042-.4-1.695l-1.319-2.39 1.093.258-4.61 2.543z"/></g><defs><clipPath id="clip0_9_2"><path fill="#fff" d="M0 0h146v151H0z"/></clipPath></defs></svg>